<svg width="109" height="109" viewBox="0 0 109 109" fill="none" xmlns="http://www.w3.org/2000/svg">
<path d="M54.5 109C84.5995 109 109 84.5995 109 54.5C109 24.4005 84.5995 0 54.5 0C24.4005 0 0 24.4005 0 54.5C0 84.5995 24.4005 109 54.5 109Z" fill="#013A4C"/>
<path d="M26.0822 30.8318H82.9179" stroke="white" stroke-width="3.4" stroke-linecap="square"/>
<path d="M35.5807 78.1687C37.0744 78.1687 38.5345 77.7258 39.7765 76.896C41.0184 76.0661 41.9864 74.8867 42.558 73.5067C43.1296 72.1267 43.2791 70.6082 42.9877 69.1432C42.6963 67.6783 41.9771 66.3326 40.9209 65.2764C39.8647 64.2202 38.519 63.501 37.0541 63.2096C35.5891 62.9182 34.0706 63.0677 32.6906 63.6393C31.3107 64.2109 30.1312 65.1789 29.3013 66.4209C28.4715 67.6628 28.0286 69.1229 28.0286 70.6166C28.0286 71.6084 28.2239 72.5904 28.6034 73.5067C28.983 74.4229 29.5393 75.2555 30.2405 75.9568C30.9418 76.658 31.7744 77.2143 32.6906 77.5939C33.6069 77.9734 34.5889 78.1687 35.5807 78.1687V78.1687Z" stroke="white" stroke-width="3.4" stroke-linecap="square"/>
<path d="M35.5807 63.0646V30.7539" stroke="white" stroke-width="3.4"/>
<path d="M50.7629 78.1688C52.2531 78.1535 53.7055 77.6975 54.9372 76.8584C56.1688 76.0193 57.1247 74.8345 57.6844 73.4532C58.2441 72.072 58.3826 70.556 58.0824 69.0962C57.7823 67.6364 57.0569 66.298 55.9977 65.2496C54.9385 64.2012 53.5928 63.4896 52.13 63.2045C50.6672 62.9193 49.1527 63.0733 47.7772 63.6472C46.4018 64.221 45.2269 65.1889 44.4004 66.4291C43.574 67.6693 43.133 69.1263 43.1329 70.6167C43.1328 71.615 43.3307 72.6035 43.7151 73.5249C44.0995 74.4462 44.6628 75.2823 45.3723 75.9846C46.0818 76.6869 46.9236 77.2415 47.8489 77.6165C48.7741 77.9914 49.7646 78.1791 50.7629 78.1688V78.1688Z" stroke="white" stroke-width="3.4" stroke-linecap="square"/>
<path d="M50.7629 63.0646V30.7539" stroke="white" stroke-width="3.4"/>
<path d="M81.75 60.9628C82.5133 62.2422 82.8811 63.7188 82.8072 65.2067C82.7333 66.6947 82.2209 68.1276 81.3346 69.325C80.4483 70.5225 79.2276 71.4311 77.8261 71.9364C76.4247 72.4418 74.905 72.5213 73.4585 72.1651C72.0119 71.8088 70.703 71.0327 69.6965 69.9343C68.69 68.836 68.0308 67.4644 67.8019 65.9923C67.573 64.5202 67.7846 63.0133 68.4101 61.6612C69.0356 60.3091 70.0471 59.1722 71.3172 58.3935C72.1646 57.8678 73.1077 57.5151 74.0921 57.3558C75.0766 57.1965 76.0828 57.2337 77.0527 57.4653C78.0227 57.697 78.9372 58.1184 79.7434 58.7053C80.5496 59.2923 81.2316 60.033 81.75 60.8849V60.9628Z" stroke="white" stroke-width="3.4" stroke-linecap="square"/>
<path d="M72.5628 57.8485L61.8964 30.832" stroke="white" stroke-width="3.4"/>
</svg>
